<svg xmlns="http://www.w3.org/2000/svg" viewBox="0 0 1800 620" role="img" aria-labelledby="title desc">
  <title id="title">إتقان</title>
  <desc id="desc">شعار إتقان بخط عربي كبير مع رمز المحاسبة والقانون</desc>
  <defs>
    <linearGradient id="navy" x1="0" y1="0" x2="1" y2="1">
      <stop offset="0" stop-color="#071b2e"/>
      <stop offset="1" stop-color="#0d1d2e"/>
    </linearGradient>
    <linearGradient id="gold" x1="0" y1="0" x2="1" y2="1">
      <stop offset="0" stop-color="#d8ae53"/>
      <stop offset=".5" stop-color="#a77a25"/>
      <stop offset="1" stop-color="#e6c974"/>
    </linearGradient>
    <filter id="premiumDepth" x="-10%" y="-16%" width="120%" height="132%">
      <feDropShadow dx="0" dy="8" stdDeviation="9" flood-color="#071b2e" flood-opacity=".13"/>
    </filter>
  </defs>

  <rect width="1800" height="620" fill="#fff"/>

  <g transform="translate(1210 54) scale(.86)" filter="url(#premiumDepth)">
    <path d="M58 270c18 142 110 224 244 258 133-34 226-116 244-258-52 102-135 164-244 194C192 434 109 372 58 270Z" fill="url(#navy)"/>
    <path d="M89 260c38 91 107 149 213 178 106-29 175-87 213-178-58 67-128 108-213 131-85-23-155-64-213-131Z" fill="#fff" opacity=".96"/>
    <path d="M302 38c68 0 127 33 164 85 34-9 73-9 119 2l7-31c-51-13-96-12-136 0-88-35-172-35-259 0-40-12-85-13-136 0l7 31c46-11 85-11 119-2 37-52 96-85 115-85Z" fill="url(#gold)"/>
    <path d="M302 0l15 49h-30L302 0Zm0 42c20 0 36 16 36 36s-16 36-36 36-36-16-36-36 16-36 36-36Z" fill="url(#gold)"/>
    <path d="M118 102v176M70 278h96M70 278l48-132 48 132M438 102v176M390 278h96M390 278l48-132 48 132" fill="none" stroke="url(#gold)" stroke-width="10" stroke-linecap="round" stroke-linejoin="round"/>
    <path d="M39 278c16 38 51 57 79 57s63-19 79-57H39Zm320 0c16 38 51 57 79 57s63-19 79-57H359Z" fill="url(#gold)"/>
    <path d="M302 135c58 0 94 40 94 104v155H208V239c0-64 36-104 94-104Z" fill="url(#navy)"/>
    <path d="M249 168c0-43 23-66 53-66s53 23 53 66c0 42-23 71-53 71s-53-29-53-71Z" fill="#fff"/>
    <path d="M247 143c7-37 28-58 57-58 39 0 63 30 63 85-15-28-43-29-67-29-20 0-37 1-53 2Z" fill="url(#navy)"/>
    <path d="M254 225h96l-24 46h-48l-24-46Z" fill="#fff"/>
    <path d="M302 270v94" stroke="#fff" stroke-width="18" stroke-linecap="round"/>
    <g transform="translate(225 318)">
      <rect x="0" y="0" width="154" height="168" rx="16" fill="#fff"/>
      <rect x="18" y="18" width="118" height="38" rx="5" fill="url(#navy)"/>
      <g fill="url(#navy)">
        <rect x="23" y="78" width="22" height="22" rx="4"/>
        <rect x="66" y="78" width="22" height="22" rx="4"/>
        <rect x="109" y="78" width="22" height="22" rx="4"/>
        <rect x="23" y="116" width="22" height="22" rx="4"/>
        <rect x="66" y="116" width="22" height="22" rx="4"/>
        <rect x="109" y="116" width="22" height="22" rx="4"/>
      </g>
    </g>
  </g>

  <g filter="url(#premiumDepth)">
    <text
      x="1085"
      y="354"
      direction="rtl"
      unicode-bidi="bidi-override"
      text-anchor="end"
      font-family="Cairo, Tajawal, 'Noto Kufi Arabic', 'Arial', sans-serif"
      font-size="330"
      font-weight="900"
      fill="url(#navy)"
    >إتقان</text>
  </g>

  <g transform="translate(72 492)">
    <path d="M0 0h250" stroke="url(#gold)" stroke-width="4" stroke-linecap="round"/>
    <path d="M860 0h250" stroke="url(#gold)" stroke-width="4" stroke-linecap="round"/>
    <text
      x="555"
      y="24"
      direction="rtl"
      unicode-bidi="bidi-override"
      text-anchor="middle"
      font-family="Cairo, Tajawal, 'Noto Kufi Arabic', 'Arial', sans-serif"
      font-size="52"
      font-weight="500"
      fill="url(#navy)"
    >محاسب قانوني احمد عثمان</text>
  </g>
</svg>
